<svg viewBox="1150.1 530.1 188.3 241.2" width="188.3" height="241.2" xmlns="http://www.w3.org/2000/svg">
  <path d="M1276.7 679.9c.1-.4.2-.9.1-1.4 0-.2 0-.4-.1-.6 0-.2 0-.4-.1-.6l-.3-.6c0-.1 0-.2-.1-.3-41.8-76.8-117.2-65.1-117.9-65-.1 0-.2.1-.3.1s-.3 0-.4.1c-.3.1-.5.3-.8.4-.1.1-.3.1-.4.2q-.75.45-1.2 1.2c-.1.1-.1.2-.2.3l-.6 1.2c-.1.2-.1.4-.1.6s-.1.4-.1.6l-4.1 150.2c0 1.9 1 3.6 2.6 4.5.7.4 1.5.5 2.2.5 1 0 2.1-.3 2.9-1l116.9-87.7.6-.6c.1-.1.2-.2.3-.4.3-.5.6-1 .8-1.5.2 0 .2-.1.3-.2m-56.9 31.9h-58.4l.6-23.6h89.2zm-56.1-82.6c5.3 5.7 12.9 13.2 22.6 20.8h-23.2zm-1.4 49.3.5-18.8h37.2c11.7 7.5 25.4 14.3 40.9 18.8zm100.6-5.4c-46.9-5.9-80.8-38.1-93.9-52.6 19-.3 63.7 4.7 93.9 52.6m-101.7 48.5h45.7l-46.6 35zm54.4-119.9c1.1 0 2.2-.4 3.1-1.2.6-.5 14.9-12.8 16.7-27.5 1.7-13.3.1-37.3 0-38.3-.2-2.7-2.5-4.6-5.2-4.5-2.7.2-4.7 2.5-4.5 5.2 0 .2 1.6 24 0 36.4-1.4 10.9-13.2 21.1-13.3 21.2-2 1.7-2.3 4.8-.5 6.9.9 1.2 2.3 1.8 3.7 1.8m23.1 19.5c2.7 0 4.9-2.2 4.9-4.9 0-.2.4-24.5 13.1-26.9 2.6-.5 4.4-3.1 3.9-5.7s-3.1-4.4-5.7-3.9c-20.8 4-21 35.1-21 36.4-.1 2.8 2.1 5 4.8 5m19.6 13.2c.7.4 1.5.6 2.3.6 1.7 0 3.4-.9 4.3-2.5 0-.1 5.1-7.2 25.9-11.4 22.2-4.4 29.2-25.6 29.9-36.1.2-2.7-1.9-5-4.6-5.1-2.6-.2-5 1.9-5.2 4.5-.1.9-1.8 23.1-22.1 27.2-25.8 5.2-31.9 15.1-32.5 16.2-1.3 2.3-.4 5.3 2 6.6m12.9-97.6c-11.9 1.8-23.2 12.2-23.7 12.6-2 1.8-2.1 4.9-.3 6.9 1 1 2.3 1.6 3.6 1.6 1.2 0 2.4-.4 3.3-1.3.1-.1 9.6-8.8 18.5-10.1 2.7-.4 4.5-2.9 4.1-5.6-.3-2.7-2.8-4.5-5.5-4.1" style="fill:#00ffa6;opacity:1"/>
  <path d="M1212.9 570.8h.6c2.4 0 4.5-1.8 4.8-4.3.1-.6 1.7-14.7-5.5-27.4-1.3-2.3-4.3-3.2-6.6-1.8-2.3 1.3-3.1 4.3-1.8 6.6 5.5 9.7 4.3 21.1 4.3 21.3-.3 2.9 1.6 5.3 4.2 5.6m-17 9.2c-8.2 2.4-22.8 6.3-27 6.3-2.7 0-4.9 2.2-4.9 4.9s2.2 4.9 4.9 4.9c7 0 27.5-6 29.8-6.7 2.6-.8 4-3.5 3.3-6.1-.8-2.6-3.5-4.1-6.1-3.3m81.5 57.4c-2.7.1-4.8 2.4-4.6 5.1.1 2.7 2.4 4.7 5.1 4.6 4.4-.2 14.7.4 18.5 3.7.9.8 2.1 1.2 3.2 1.2 1.4 0 2.7-.6 3.7-1.7 1.8-2 1.6-5.1-.5-6.9-7.8-6.6-23.6-6.1-25.4-6m58.1-29.3c-2.3-1.4-5.3-.8-6.7 1.5-3.7 5.8-14.6 8.6-18.5 9.2-2.7.4-4.5 2.9-4.1 5.5.4 2.4 2.4 4.1 4.8 4.1.2 0 .5 0 .7-.1 1.9-.3 18.6-3.1 25.3-13.6 1.4-2.1.7-5.1-1.5-6.6m-65.7-10.4c.7.3 1.4.5 2.1.5 1.8 0 3.5-1 4.4-2.7 2.1-4.2 9.5-16.8 16.3-18.8 2.6-.8 4.1-3.5 3.3-6-.8-2.6-3.5-4.1-6-3.3-12.1 3.5-21.3 21.8-22.3 23.8-1.2 2.4-.2 5.4 2.2 6.5" style="fill:#00ffa6;opacity:1"/>
</svg>
