<svg xmlns="http://www.w3.org/2000/svg" viewBox="0 0 724 1448" width="724" height="1448"><g xmlns="http://www.w3.org/2000/svg" transform="matrix(0 1 -1 0 724 -0)"><g><path d="M 633.50,662.93 L 631.08,662.65 L 626.37,661.98 L 624.09,661.63 L 620.12,660.90 L 619.21,660.72 L 617.62,660.38 L 616.88,660.21 L 615.70,659.90 L 615.16,659.74 L 614.46,659.47 L 614.03,659.14 L 614.03,659.09 L 614.24,658.94 L 614.38,658.86 L 614.84,658.63 L 615.36,658.39 L 617.03,657.73 L 617.95,657.37 L 620.25,656.55 L 624.19,655.23 L 624.89,655.01 L 626.57,654.41 L 627.46,654.09 L 629.47,653.32 L 631.55,652.52 L 636.37,650.54 L 638.83,649.50 L 643.98,647.25 L 651.41,643.84 L 655.91,641.70 L 664.82,637.79 L 669.23,635.90 L 677.74,632.58 L 679.82,631.79 L 683.86,630.34 L 685.86,629.64 L 689.70,628.38 L 691.59,627.78 L 695.18,626.72 L 700.25,625.38 L 701.31,625.12 L 703.26,624.59 L 704.18,624.33 L 705.72,623.83 L 706.42,623.59 L 707.39,623.19 L 708.00,622.75 L 708.00,622.65 L 707.65,622.46 L 707.42,622.37 L 706.70,622.22 L 703.57,622.00 L 701.66,622.00 L 697.54,621.59 L 695.43,621.32 L 690.92,620.39 L 688.63,619.86 L 683.78,618.41 L 681.31,617.62 L 676.15,615.67 L 673.54,614.64 L 668.11,612.20 L 665.36,610.93 L 659.70,608.02 L 656.84,606.52 L 650.98,603.16 L 642.01,597.62 L 632.52,591.50 L 638.80,590.60 L 640.04,590.43 L 642.51,590.27 L 643.78,590.22 L 646.66,590.35 L 647.43,590.40 L 649.12,590.56 L 650.00,590.65 L 651.96,590.89 L 652.98,591.02 L 655.27,591.35 L 659.12,591.95 L 661.89,592.39 L 666.88,593.26 L 669.29,593.69 L 673.77,594.60 L 678.16,595.54 L 686.48,597.87 L 688.61,598.52 L 693.06,600.03 L 695.35,600.83 L 700.30,602.69 L 702.87,603.67 L 708.58,605.97 L 710.06,606.57 L 713.22,607.87 L 718.26,609.98 L 719.49,610.49 L 721.74,611.37 L 722.83,611.78 L 724.85,612.47 L 726.83,613.11 L 730.28,613.83 L 731.96,614.11 L 735.09,614.16 L 739.80,613.54 L 740.50,613.39 L 741.54,613.28 L 742.01,613.25 L 742.61,613.38 L 742.86,613.47 L 743.02,613.82 L 743.05,614.02 L 742.79,614.58 L 742.61,614.88 L 741.93,615.63 L 741.54,616.02 L 740.46,616.94 L 739.87,617.42 L 738.40,618.49 L 735.75,620.25 L 735.25,620.57 L 733.99,621.40 L 733.32,621.85 L 731.75,622.91 L 730.94,623.47 L 729.13,624.72 L 728.21,625.36 L 726.22,626.76 L 724.21,628.18 L 719.90,631.26 L 713.50,635.93 L 710.44,638.18 L 704.81,642.14 L 702.05,644.03 L 696.89,647.31 L 694.36,648.87 L 689.49,651.55 L 687.08,652.82 L 682.33,654.99 L 679.95,656.01 L 675.14,657.73 L 672.71,658.54 L 667.65,659.90 L 665.07,660.54 L 659.58,661.61 L 650.68,662.97 L 649.60,663.12 L 647.55,663.36 L 646.55,663.48 L 644.81,663.66 L 643.99,663.74 L 642.75,663.84 L 641.68,663.87 L 641.52,663.85 L 640.67,663.75 L 640.17,663.70 L 638.79,663.54 L 638.05,663.45 L 636.31,663.25 L 635.41,663.15 M 705.53,653.17 L 707.45,652.15 L 710.88,650.26 L 712.54,649.33 L 715.58,647.51 L 718.57,645.69 L 724.16,641.69 L 725.58,640.61 L 728.58,638.19 L 730.11,636.92 L 733.45,634.02 L 735.18,632.50 L 739.06,628.98 L 740.07,628.06 L 742.22,626.07 L 745.67,622.86 L 747.85,620.82 L 752.73,616.74 L 755.25,614.70 L 760.77,610.64 L 763.61,608.62 L 769.71,604.62 L 779.44,598.76 L 780.83,597.98 L 783.28,596.54 L 784.43,595.85 L 786.28,594.71 L 787.11,594.19 L 788.16,593.47 L 788.36,593.33 L 788.58,593.13 L 788.60,593.01 L 788.48,593.01 L 787.50,593.25 L 786.91,593.40 L 785.18,593.90 L 784.23,594.17 L 781.96,594.86 L 778.20,596.05 L 774.75,597.15 L 767.91,598.77 L 764.47,599.48 L 757.40,600.34 L 753.81,600.67 L 746.19,600.80 L 744.23,600.79 L 740.15,600.63 L 733.76,600.20 L 732.08,600.06 L 728.08,599.61 L 726.00,599.36 L 721.44,598.72 L 716.79,598.05 L 707.19,596.42 L 704.86,596.01 L 700.54,595.18 L 698.45,594.77 L 694.84,593.99 L 693.99,593.80 L 692.50,593.44 L 691.78,593.26 L 690.57,592.94 L 690.01,592.78 L 689.13,592.49 L 688.22,592.10 L 687.95,591.95 L 687.97,591.54 L 688.08,591.32 L 688.93,590.73 L 689.46,590.41 L 691.20,589.60 L 694.91,588.10 L 696.82,587.36 L 700.23,586.12 L 701.90,585.54 L 705.05,584.59 L 706.61,584.14 L 709.75,583.43 L 711.35,583.10 L 714.76,582.60 L 716.53,582.38 L 720.48,582.05 L 722.55,581.91 L 727.32,581.72 L 728.58,581.68 L 731.29,581.63 L 732.68,581.60 L 735.69,581.57 L 737.24,581.55 L 740.58,581.53 L 746.00,581.53 L 749.78,581.53 L 757.78,581.56 L 761.78,581.58 L 769.53,581.64 L 771.41,581.66 L 774.97,581.70 L 776.71,581.72 L 779.89,581.77 L 781.43,581.79 L 784.13,581.84 L 787.50,581.92 L 789.21,581.96 L 792.15,582.02 L 793.55,582.04 L 795.99,582.02 L 797.15,582.00 L 799.19,581.89 L 800.18,581.83 L 801.95,581.62 L 803.69,581.38 L 806.88,580.52 L 807.70,580.27 L 809.42,579.64 L 812.25,578.51 L 812.72,578.32 L 813.37,578.19 L 813.65,578.17 L 813.95,578.38 L 814.05,578.53 L 813.98,579.07 L 813.90,579.38 L 813.47,580.24 L 813.21,580.71 L 812.43,581.90 L 812.00,582.53 L 810.87,584.02 L 810.26,584.80 L 808.78,586.59 L 806.18,589.62 L 805.65,590.23 L 804.41,591.68 L 803.76,592.44 L 802.35,594.14 L 800.89,595.90 L 797.67,599.90 L 796.04,601.94 L 792.76,606.14 L 788.18,612.14 L 786.50,614.39 L 783.43,618.35 L 781.94,620.26 L 779.16,623.61 L 777.79,625.21 L 775.19,628.05 L 773.91,629.41 L 771.38,631.82 L 770.11,632.98 L 767.55,635.08 L 766.26,636.09 L 763.55,637.97 L 762.17,638.88 L 759.21,640.64 L 754.37,643.24 L 749.84,645.55 L 740.52,649.44 L 738.19,650.35 L 733.52,651.97 L 731.19,652.74 L 726.57,654.08 L 724.28,654.72 L 719.77,655.76 L 717.53,656.25 L 713.18,656.99 L 711.03,657.32 L 706.90,657.73 L 701.00,657.97 L 696.50,657.96 L 705.53,653.17 M 595.50,643.41 L 593.13,643.09 L 588.78,642.43 L 586.66,642.09 L 582.74,641.37 L 580.83,641.00 L 577.26,640.19 L 575.50,639.77 L 572.17,638.84 L 568.89,637.88 L 562.68,635.50 L 553.14,631.01 L 551.20,630.00 L 547.01,627.59 L 544.94,626.36 L 541.21,623.99 L 540.35,623.43 L 538.88,622.42 L 538.19,621.94 L 537.16,621.15 L 536.72,620.79 L 536.24,620.31 L 536.30,620.00 L 536.35,620.00 L 536.71,620.05 L 536.93,620.09 L 537.60,620.21 L 538.34,620.34 L 540.59,620.77 L 541.81,621.01 L 544.80,621.61 L 549.79,622.63 L 551.15,622.91 L 553.55,623.38 L 554.70,623.60 L 556.76,623.97 L 558.76,624.30 L 562.19,624.68 L 563.89,624.83 L 567.35,624.89 L 568.26,624.89 L 570.22,624.84 L 573.50,624.69 L 575.01,624.62 L 578.36,624.34 L 580.06,624.19 L 583.47,623.80 L 585.15,623.59 L 588.22,623.13 L 592.00,622.43 L 593.30,622.13 L 596.25,621.66 L 597.80,621.44 L 601.33,621.11 L 603.18,620.97 L 607.39,620.78 L 614.61,620.66 L 629.71,620.60 L 621.79,616.05 L 620.70,615.42 L 618.24,613.89 L 617.00,613.09 L 614.45,611.37 L 613.20,610.50 L 610.87,608.80 L 607.94,606.50 L 607.58,606.19 L 606.60,605.31 L 606.08,604.83 L 604.82,603.64 L 604.15,603.01 L 602.65,601.55 L 601.88,600.80 L 600.19,599.13 L 598.46,597.42 L 594.65,593.59 L 592.72,591.64 L 588.79,587.62 L 586.85,585.62 L 583.21,581.83 L 582.33,580.91 L 580.70,579.19 L 579.91,578.35 L 578.49,576.83 L 577.80,576.09 L 576.63,574.81 L 576.09,574.21 L 575.22,573.22 L 574.83,572.77 L 574.32,572.13 L 574.00,571.62 L 574.00,571.58 L 574.24,571.59 L 574.39,571.61 L 574.91,571.72 L 575.50,571.86 L 577.40,572.41 L 578.45,572.72 L 581.09,573.56 L 585.59,575.07 L 590.30,576.70 L 599.86,580.70 L 602.26,581.77 L 607.13,584.10 L 609.57,585.30 L 614.53,587.91 L 617.02,589.25 L 622.09,592.15 L 624.64,593.63 L 629.83,596.83 L 632.45,598.47 L 637.79,601.97 L 646.00,607.58 L 647.70,608.77 L 650.84,610.91 L 652.37,611.94 L 655.23,613.78 L 656.62,614.66 L 659.23,616.21 L 660.51,616.96 L 662.91,618.25 L 664.09,618.87 L 666.33,619.93 L 667.43,620.43 L 669.56,621.28 L 675.69,623.13 L 676.73,623.36 L 678.37,623.77 L 679.11,623.96 L 680.11,624.33 L 680.52,624.52 L 680.81,624.90 L 680.85,625.10 L 680.35,625.56 L 679.99,625.79 L 678.63,626.36 L 677.83,626.66 L 675.52,627.39 L 674.89,627.59 L 673.42,628.02 L 672.66,628.24 L 670.94,628.73 L 670.04,628.98 L 668.05,629.53 L 664.75,630.44 L 664.39,630.54 L 663.44,630.80 L 662.93,630.94 L 661.73,631.27 L 660.46,631.62 L 657.37,632.48 L 647.00,635.38 L 644.26,636.15 L 638.87,637.55 L 636.21,638.22 L 631.03,639.41 L 628.47,639.98 L 623.56,640.96 L 621.14,641.42 L 616.57,642.18 L 614.33,642.53 L 610.17,643.05 L 608.14,643.28 L 604.45,643.55 L 602.68,643.66 L 599.53,643.68 L 598.03,643.65 M 776.00,639.19 L 776.00,639.05 L 776.20,638.64 L 776.34,638.42 L 776.79,637.86 L 777.30,637.26 L 778.99,635.68 L 779.93,634.84 L 782.33,632.89 L 786.56,629.73 L 787.60,628.99 L 789.83,627.16 L 790.98,626.20 L 793.41,623.95 L 794.65,622.78 L 797.26,620.13 L 798.59,618.75 L 801.35,615.72 L 802.75,614.17 L 805.65,610.78 L 807.11,609.05 L 810.11,605.34 L 811.62,603.45 L 814.71,599.44 L 819.41,593.11 L 821.24,590.59 L 824.48,586.17 L 826.04,584.06 L 828.82,580.33 L 830.16,578.55 L 832.60,575.37 L 833.79,573.84 L 836.00,571.08 L 838.19,568.38 L 842.39,563.59 L 843.47,562.40 L 845.73,559.97 L 849.39,556.15 L 857.50,547.79 L 850.59,552.46 L 848.09,554.15 L 843.27,557.11 L 840.88,558.52 L 836.12,560.96 L 833.74,562.12 L 828.85,564.10 L 826.37,565.03 L 821.14,566.60 L 818.47,567.35 L 812.71,568.57 L 809.74,569.14 L 803.24,570.06 L 799.88,570.50 L 792.44,571.18 L 790.51,571.34 L 786.44,571.63 L 780.00,572.01 L 777.32,572.15 L 772.25,572.44 L 769.81,572.59 L 765.57,572.88 L 764.58,572.95 L 762.85,573.08 L 762.03,573.14 L 760.66,573.26 L 760.03,573.31 L 759.10,573.41 L 758.25,573.54 L 757.63,573.67 L 756.66,573.78 L 756.00,573.65 L 756.00,573.56 L 756.60,573.03 L 756.99,572.71 L 758.28,571.78 L 758.99,571.27 L 760.83,570.03 L 761.81,569.38 L 764.08,567.91 L 765.26,567.16 L 767.83,565.54 L 769.15,564.72 L 771.89,563.03 L 780.17,558.13 L 782.88,556.57 L 787.92,553.80 L 790.40,552.47 L 795.07,550.12 L 797.37,548.99 L 801.82,547.01 L 804.04,546.05 L 808.41,544.37 L 810.60,543.56 L 815.05,542.13 L 817.30,541.44 L 821.96,540.21 L 824.34,539.61 L 829.37,538.52 L 837.50,536.99 L 839.65,536.61 L 843.49,535.92 L 845.34,535.58 L 848.63,534.95 L 850.22,534.63 L 853.05,534.03 L 854.41,533.74 L 856.83,533.15 L 858.00,532.86 L 860.10,532.28 L 861.12,531.99 L 862.96,531.40 L 867.86,529.46 L 873.22,527.01 L 872.68,530.26 L 872.61,530.70 L 872.36,532.03 L 872.22,532.75 L 871.86,534.46 L 870.65,540.00 L 870.45,540.89 L 869.94,543.23 L 869.67,544.47 L 869.09,547.23 L 868.80,548.64 L 868.22,551.49 L 867.43,555.50 L 866.81,558.74 L 865.25,564.98 L 864.42,568.05 L 862.46,573.88 L 861.44,576.74 L 859.12,582.08 L 855.26,589.43 L 854.56,590.62 L 852.85,593.13 L 851.95,594.41 L 849.92,597.04 L 847.82,599.68 L 842.98,604.96 L 840.50,607.54 L 835.36,612.23 L 834.09,613.33 L 831.59,615.32 L 828.00,617.88 L 826.77,618.69 L 824.05,620.33 L 822.65,621.15 L 819.64,622.81 L 816.57,624.47 L 809.85,627.72 L 806.43,629.31 L 799.38,632.24 L 789.01,636.04 L 787.34,636.58 L 784.63,637.48 L 783.36,637.89 L 781.36,638.54 L 780.44,638.83 L 779.04,639.26 L 778.41,639.45 L 777.51,639.68 L 777.12,639.78 L 776.61,639.85 L 776.39,639.86 L 776.16,639.79 L 775.98,639.69 M 554.25,614.93 L 550.76,614.48 L 543.63,612.89 L 540.07,611.99 L 533.06,609.61 L 529.60,608.34 L 523.08,605.31 L 521.50,604.52 L 518.50,602.83 L 514.27,600.18 L 512.52,598.99 L 508.85,596.19 L 507.03,594.75 L 503.54,591.75 L 501.86,590.27 L 499.02,587.47 L 498.36,586.80 L 497.26,585.57 L 495.95,583.93 L 493.90,581.04 L 500.70,583.94 L 502.84,584.85 L 507.47,586.48 L 508.69,586.88 L 511.36,587.66 L 512.74,588.06 L 515.81,588.85 L 517.41,589.25 L 520.99,590.08 L 522.86,590.50 L 527.06,591.39 L 529.24,591.84 L 534.17,592.82 L 542.50,594.42 L 545.11,594.91 L 550.07,595.86 L 552.47,596.32 L 556.65,597.13 L 557.63,597.33 L 559.35,597.67 L 560.17,597.83 L 561.53,598.11 L 562.16,598.24 L 563.11,598.44 L 564.00,598.64 L 564.51,598.77 L 565.08,598.83 L 565.29,598.82 L 565.23,598.56 L 565.12,598.39 L 564.39,597.75 L 562.50,596.28 L 560.79,595.01 L 557.31,591.83 L 556.43,590.98 L 554.63,589.08 L 553.72,588.10 L 551.84,585.93 L 550.89,584.81 L 548.92,582.35 L 547.92,581.08 L 545.83,578.29 L 544.76,576.85 L 542.53,573.71 L 539.00,568.58 L 537.71,566.66 L 534.88,562.67 L 533.46,560.68 L 530.61,556.87 L 529.22,555.03 L 526.69,551.85 L 526.10,551.11 L 525.03,549.83 L 523.63,548.27 L 517.66,541.88 L 522.77,543.82 L 524.85,544.61 L 528.88,546.41 L 530.89,547.35 L 534.90,549.54 L 536.91,550.69 L 541.03,553.38 L 543.12,554.80 L 547.51,558.11 L 549.75,559.85 L 554.53,563.88 L 555.76,564.94 L 558.32,567.21 L 559.61,568.37 L 562.32,570.86 L 563.69,572.14 L 566.57,574.86 L 568.03,576.26 L 571.08,579.23 L 572.64,580.75 L 575.90,583.98 L 581.04,589.14 L 582.71,590.83 L 585.73,593.86 L 587.19,595.33 L 589.79,597.94 L 591.04,599.20 L 593.24,601.42 L 594.28,602.48 L 596.08,604.35 L 596.93,605.24 L 598.34,606.77 L 599.00,607.51 L 600.04,608.76 L 600.51,609.35 L 601.19,610.34 L 601.48,610.80 L 601.80,611.57 L 601.92,611.93 L 601.90,612.51 L 601.85,612.78 L 601.50,613.20 L 601.28,613.40 L 600.61,613.70 L 600.24,613.84 L 599.26,614.05 L 598.73,614.14 L 597.45,614.30 L 596.78,614.37 L 595.21,614.51 L 594.40,614.57 L 592.56,614.72 L 589.50,614.99 L 586.58,615.27 L 580.32,615.61 L 577.16,615.75 L 570.82,615.81 L 567.70,615.81 L 561.86,615.59 L 560.45,615.51 L 557.83,615.31 L 556.56,615.20 M 863.41,591.17 L 864.26,589.48 L 866.05,585.43 L 866.95,583.31 L 868.80,578.50 L 869.73,576.02 L 871.60,570.60 L 872.53,567.83 L 874.38,561.96 L 875.30,558.98 L 877.07,552.80 L 877.95,549.69 L 879.60,543.36 L 883.91,524.50 L 884.73,520.38 L 886.73,511.48 L 887.22,509.38 L 888.13,505.64 L 888.35,504.76 L 888.76,503.21 L 889.30,501.25 L 889.63,500.12 L 890.21,498.05 L 890.49,497.06 L 890.92,495.42 L 891.12,494.68 L 891.36,493.65 L 891.45,493.00 L 891.42,493.00 L 891.11,493.38 L 890.92,493.63 L 890.36,494.43 L 890.06,494.87 L 889.32,495.98 L 888.09,497.86 L 887.17,499.29 L 885.12,502.01 L 884.06,503.34 L 881.72,505.88 L 880.51,507.13 L 877.85,509.51 L 876.47,510.68 L 873.48,512.90 L 871.94,513.99 L 868.60,516.07 L 866.89,517.10 L 863.19,519.05 L 861.29,520.01 L 857.21,521.84 L 850.64,524.46 L 849.47,524.89 L 846.44,525.91 L 844.84,526.43 L 841.17,527.57 L 837.40,528.72 L 829.22,531.03 L 827.22,531.58 L 823.45,532.58 L 821.62,533.06 L 818.42,533.84 L 816.92,534.20 L 814.59,534.69 L 814.07,534.79 L 813.26,534.92 L 812.40,535.00 L 812.10,535.00 L 812.03,534.55 L 812.07,534.26 L 812.66,533.26 L 813.03,532.69 L 814.23,531.19 L 814.90,530.37 L 816.67,528.41 L 817.63,527.37 L 819.92,525.00 L 821.14,523.76 L 823.92,521.03 L 825.37,519.62 L 828.59,516.56 L 833.87,511.68 L 836.01,509.73 L 839.86,506.28 L 841.72,504.63 L 845.14,501.68 L 846.81,500.25 L 849.96,497.68 L 851.51,496.43 L 854.56,494.10 L 857.60,491.82 L 864.08,487.50 L 865.78,486.40 L 869.49,484.10 L 875.66,480.39 L 877.55,479.27 L 880.91,477.22 L 882.52,476.22 L 885.33,474.40 L 886.67,473.51 L 888.99,471.87 L 890.09,471.07 L 891.97,469.57 L 892.86,468.83 L 894.35,467.43 L 895.05,466.74 L 896.20,465.39 L 896.74,464.72 L 897.60,463.39 L 898.62,461.36 L 898.98,460.51 L 899.59,459.24 L 899.89,458.69 L 900.43,458.09 L 900.70,457.90 L 901.23,458.12 L 901.51,458.34 L 902.09,459.52 L 902.24,459.88 L 902.56,460.80 L 902.72,461.30 L 903.07,462.50 L 903.25,463.14 L 903.64,464.65 L 903.84,465.44 L 904.27,467.27 L 904.50,468.23 L 904.99,470.39 L 905.24,471.52 L 905.78,474.04 L 906.07,475.34 L 906.68,478.23 L 907.69,483.00 L 908.09,484.92 L 908.77,488.27 L 909.09,489.88 L 909.63,492.70 L 909.87,494.06 L 910.27,496.53 L 910.46,497.73 L 910.74,499.99 L 911.00,502.23 L 911.26,506.78 L 911.31,507.98 L 911.37,510.59 L 911.40,515.00 L 911.41,516.67 L 911.40,519.50 L 911.40,520.84 L 911.35,523.12 L 911.32,524.21 L 911.23,526.08 L 911.17,526.97 L 911.00,528.57 L 910.81,530.12 L 910.15,532.98 L 909.96,533.72 L 909.48,535.31 L 908.61,538.00 L 907.84,540.28 L 906.19,544.64 L 905.34,546.79 L 903.50,550.93 L 902.55,552.97 L 900.51,556.89 L 899.47,558.83 L 897.22,562.56 L 896.07,564.40 L 893.60,567.95 L 892.34,569.70 L 889.64,573.10 L 888.26,574.77 L 885.32,578.02 L 880.63,582.75 L 879.82,583.52 L 877.98,585.17 L 877.03,586.00 L 874.99,587.72 L 872.93,589.44 L 868.77,592.67 L 867.77,593.44 L 865.91,594.79 L 865.01,595.43 L 863.46,596.48 L 862.73,596.95 L 861.61,597.60 L 860.54,598.00 L 860.46,598.00 L 860.59,597.46 L 860.70,597.11 L 861.15,595.99 L 861.41,595.38 L 862.12,593.82 L 862.50,593.01 M 536.37,586.97 L 533.77,586.31 L 528.59,584.44 L 526.00,583.42 L 520.90,580.89 L 518.37,579.54 L 513.43,576.40 L 510.98,574.75 L 506.25,571.05 L 503.93,569.13 L 499.48,564.92 L 497.30,562.76 L 493.21,558.10 L 491.22,555.72 L 487.54,550.66 L 482.57,542.69 L 481.71,541.15 L 480.05,537.79 L 479.25,536.12 L 477.90,532.96 L 477.60,532.22 L 477.09,530.88 L 476.86,530.24 L 476.53,529.16 L 476.38,528.67 L 476.25,527.95 L 476.31,527.36 L 476.34,527.32 L 476.68,527.45 L 476.90,527.55 L 477.57,527.92 L 477.94,528.13 L 478.91,528.71 L 479.42,529.03 L 480.65,529.80 L 481.94,530.62 L 485.15,532.73 L 486.83,533.85 L 490.62,536.41 L 494.51,539.05 L 502.84,544.87 L 504.88,546.31 L 508.73,549.08 L 513.92,552.89 L 515.71,554.23 L 519.18,557.04 L 520.89,558.45 L 524.10,561.29 L 525.66,562.71 L 528.48,565.47 L 532.10,569.40 L 533.77,571.36 L 536.84,575.36 L 538.30,577.33 L 540.71,580.96 L 541.25,581.82 L 542.16,583.38 L 542.58,584.13 L 543.20,585.41 L 543.47,586.01 L 543.78,586.96 L 543.83,587.92 L 543.78,588.04 L 543.14,588.12 L 542.74,588.13 L 541.50,588.00 L 540.83,587.92 L 539.17,587.61 L 538.30,587.44 M 921.48,550.25 L 921.61,549.92 L 921.88,548.93 L 922.02,548.39 L 922.29,547.00 L 922.43,546.26 L 922.71,544.52 L 922.84,543.60 L 923.11,541.54 L 923.38,539.40 L 923.88,534.35 L 924.53,525.92 L 924.73,522.79 L 924.62,516.66 L 924.54,515.10 L 924.23,511.82 L 924.04,510.15 L 923.50,506.56 L 923.19,504.71 L 922.39,500.65 L 921.95,498.56 L 920.87,493.90 L 920.29,491.48 L 918.91,486.09 L 916.47,477.00 L 915.38,473.02 L 913.45,465.51 L 912.53,461.82 L 910.95,454.84 L 910.21,451.41 L 908.96,444.91 L 908.38,441.71 L 907.47,435.63 L 907.05,432.63 L 906.45,426.92 L 906.19,424.10 L 905.91,418.70 L 905.81,416.04 L 905.83,410.90 L 906.20,403.42 L 906.25,402.78 L 906.43,401.20 L 906.53,400.37 L 906.78,398.49 L 907.06,396.54 L 907.81,392.00 L 908.21,389.68 L 909.13,384.81 L 910.61,377.76 L 910.88,376.58 L 911.36,374.44 L 911.59,373.40 L 912.00,371.52 L 912.40,369.70 L 913.02,366.71 L 913.30,365.31 L 913.70,362.99 L 913.87,361.90 L 914.04,360.04 L 914.17,358.25 L 913.86,355.10 L 913.75,354.27 L 913.38,352.46 L 912.68,349.26 L 912.06,346.54 L 911.01,340.90 L 910.51,338.06 L 909.71,332.24 L 908.96,326.39 L 908.23,314.58 L 908.11,311.66 L 908.07,305.91 L 908.08,303.06 L 908.30,297.56 L 908.45,294.84 L 908.93,289.67 L 909.97,282.42 L 910.11,281.67 L 910.52,279.62 L 910.75,278.51 L 911.34,275.82 L 911.65,274.40 L 912.37,271.19 L 912.75,269.52 L 913.60,265.90 L 914.46,262.19 L 916.43,254.01 L 919.54,241.50 L 927.13,211.50 L 926.69,196.50 L 926.62,194.04 L 926.40,189.69 L 926.27,187.62 L 925.96,184.06 L 925.79,182.38 L 925.38,179.65 L 924.66,176.55 L 924.22,175.18 L 923.65,172.94 L 923.54,172.45 L 923.43,171.75 L 923.45,171.21 L 923.52,171.15 L 923.91,171.49 L 924.15,171.73 L 924.82,172.61 L 925.19,173.10 L 926.08,174.40 L 926.54,175.10 L 927.57,176.72 L 928.63,178.40 L 930.90,182.27 L 933.97,187.94 L 934.96,189.91 L 936.74,193.82 L 937.59,195.78 L 939.09,199.72 L 939.81,201.70 L 941.04,205.70 L 941.63,207.71 L 942.62,211.82 L 943.08,213.89 L 943.82,218.14 L 944.16,220.29 L 944.66,224.74 L 944.89,226.99 L 945.17,231.67 L 945.35,239.00 L 945.35,241.93 L 945.15,247.68 L 945.01,250.53 L 944.49,256.19 L 944.19,259.02 L 943.33,264.69 L 942.86,267.53 L 941.65,273.31 L 941.00,276.22 L 939.41,282.19 L 938.57,285.21 L 936.58,291.47 L 935.54,294.65 L 933.13,301.30 L 929.03,311.82 L 927.69,315.11 L 925.36,321.35 L 924.81,322.87 L 923.82,325.75 L 923.35,327.16 L 922.51,329.79 L 922.12,331.08 L 921.46,333.42 L 921.15,334.55 L 920.68,336.54 L 920.47,337.49 L 920.20,339.10 L 920.04,341.00 L 920.04,341.10 L 920.16,341.07 L 920.24,341.02 L 920.51,340.69 L 920.66,340.49 L 921.05,339.90 L 921.27,339.57 L 921.78,338.74 L 922.31,337.85 L 923.66,335.47 L 925.95,331.20 L 928.13,327.03 L 932.65,319.22 L 934.92,315.42 L 939.56,308.45 L 941.89,305.08 L 946.57,299.06 L 947.74,297.63 L 950.07,294.95 L 953.55,291.25 L 954.68,290.12 L 956.81,288.05 L 957.84,287.06 L 959.62,285.42 L 960.45,284.68 L 961.69,283.65 L 961.96,283.44 L 962.35,283.17 L 962.71,283.00 L 962.83,283.00 L 963.26,283.39 L 963.50,283.64 L 964.11,284.43 L 964.74,285.30 L 966.22,287.71 L 966.95,288.94 L 968.16,291.30 L 968.41,291.84 L 968.77,292.73 L 969.00,293.67 L 969.00,293.79 L 968.74,294.17 L 968.58,294.37 L 968.05,294.87 L 965.76,296.48 L 965.02,296.92 L 963.15,298.32 L 962.16,299.09 L 959.91,301.04 L 958.75,302.07 L 956.27,304.42 L 955.01,305.64 L 952.43,308.25 L 949.86,310.89 L 945.05,316.32 L 943.93,317.64 L 941.95,320.13 L 939.52,323.48 L 938.05,325.70 L 935.46,329.93 L 934.20,332.05 L 931.88,336.34 L 930.74,338.52 L 928.51,343.23 L 925.07,351.15 L 921.90,358.80 L 925.32,367.68 L 926.55,370.87 L 929.15,376.90 L 930.48,379.86 L 933.27,385.45 L 934.69,388.19 L 937.69,393.35 L 939.21,395.88 L 942.42,400.62 L 944.05,402.94 L 947.48,407.28 L 949.22,409.40 L 952.88,413.34 L 954.74,415.27 L 958.63,418.83 L 964.76,423.77 L 965.62,424.41 L 967.04,425.50 L 967.70,426.01 L 968.71,426.92 L 969.17,427.36 L 969.80,428.17 L 970.06,428.57 L 970.32,429.37 L 970.41,429.78 L 970.31,430.66 L 970.22,431.12 L 969.80,432.16 L 969.54,432.71 L 968.80,434.00 L 967.35,436.30 L 964.90,440.10 L 959.99,436.00 L 958.69,434.90 L 955.94,432.22 L 954.54,430.81 L 951.64,427.54 L 950.18,425.83 L 947.20,422.05 L 945.71,420.10 L 942.69,415.88 L 941.18,413.72 L 938.18,409.14 L 936.69,406.81 L 933.76,401.95 L 925.51,386.65 L 924.89,385.38 L 923.80,383.20 L 923.28,382.16 L 922.39,380.44 L 921.96,379.63 L 921.24,378.34 L 920.91,377.74 L 920.34,376.83 L 920.08,376.43 L 919.65,375.89 L 919.45,375.66 L 919.14,375.45 L 919.00,375.38 L 918.78,375.47 L 918.53,375.90 L 918.35,376.46 L 918.21,377.96 L 918.17,378.78 L 918.28,380.75 L 918.37,381.79 L 918.73,384.18 L 918.94,385.42 L 919.54,388.17 L 919.87,389.58 L 920.69,392.63 L 921.13,394.18 L 922.16,397.48 L 925.97,408.00 L 927.34,411.41 L 929.77,417.77 L 930.94,420.88 L 933.01,426.72 L 934.00,429.59 L 935.73,435.03 L 936.56,437.72 L 937.98,442.88 L 938.66,445.44 L 939.81,450.44 L 940.36,452.93 L 941.27,457.89 L 941.70,460.37 L 942.40,465.40 L 943.24,473.15 L 943.55,476.54 L 943.74,483.28 L 943.77,486.64 L 943.42,493.29 L 943.17,496.61 L 942.28,503.14 L 941.77,506.39 L 940.36,512.75 L 939.59,515.90 L 937.66,522.05 L 936.63,525.09 L 934.20,530.97 L 932.92,533.87 L 930.00,539.44 L 925.07,547.40 L 924.26,548.58 L 922.97,550.27 L 922.68,550.64 L 922.18,551.19 L 921.95,551.44 L 921.60,551.76 L 921.43,551.89 L 921.22,551.96 L 921.13,551.97 L 921.06,551.78 L 921.05,551.66 L 921.15,551.22 L 921.22,550.96 M 577.71,540.46 L 577.60,540.12 L 577.29,539.16 L 577.13,538.63 L 576.72,537.35 L 576.29,536.00 L 575.21,532.55 L 574.64,530.74 L 573.38,526.72 L 571.44,520.50 L 571.12,519.47 L 570.38,517.16 L 569.99,515.97 L 569.15,513.41 L 568.29,510.81 L 566.38,505.21 L 565.41,502.40 L 563.47,496.90 L 562.99,495.56 L 562.08,493.02 L 560.78,489.50 L 560.37,488.40 L 559.46,485.92 L 558.99,484.65 L 557.99,481.89 L 556.98,479.07 L 554.83,472.99 L 553.76,469.93 L 551.68,463.90 L 551.18,462.44 L 550.24,459.64 L 548.94,455.75 L 548.24,453.64 L 546.86,449.66 L 546.18,447.72 L 544.85,444.15 L 544.19,442.42 L 542.95,439.33 L 542.35,437.85 L 541.23,435.33 L 540.70,434.14 L 539.75,432.27 L 539.30,431.42 L 538.55,430.28 L 538.20,429.81 L 537.69,429.49 L 537.24,430.01 L 537.22,430.11 L 537.27,430.67 L 537.32,431.01 L 537.48,432.00 L 537.58,432.54 L 537.85,433.90 L 538.00,434.62 L 538.37,436.31 L 538.75,438.06 L 539.74,442.31 L 541.48,449.36 L 542.14,451.98 L 543.24,456.58 L 543.75,458.78 L 544.56,462.63 L 544.92,464.48 L 545.43,467.70 L 545.65,469.24 L 545.88,471.96 L 545.96,473.26 L 545.91,475.59 L 545.86,476.72 L 545.54,478.78 L 545.35,479.79 L 544.77,481.71 L 543.62,484.57 L 543.05,485.80 L 541.37,488.59 L 540.48,489.99 L 538.53,492.63 L 538.05,493.26 L 537.13,494.37 L 536.68,494.89 L 535.85,495.75 L 535.46,496.14 L 534.79,496.67 L 534.04,497.00 L 533.94,497.00 L 533.71,496.27 L 533.59,495.80 L 533.35,494.28 L 533.23,493.44 L 533.00,491.34 L 532.72,487.75 L 532.62,486.15 L 532.24,482.87 L 532.03,481.20 L 531.39,477.72 L 531.04,475.94 L 530.14,472.15 L 528.45,466.00 L 527.63,463.24 L 526.15,458.14 L 525.44,455.66 L 524.16,451.09 L 523.55,448.87 L 522.49,444.78 L 521.98,442.80 L 521.12,439.16 L 520.72,437.40 L 520.07,434.17 L 519.77,432.60 L 519.33,429.73 L 519.14,428.34 L 518.91,425.79 L 518.82,424.55 L 518.80,422.29 L 518.82,421.19 L 519.01,419.16 L 519.13,418.18 L 519.53,416.35 L 519.99,414.56 L 521.53,411.41 L 522.41,409.88 L 524.82,406.98 L 529.38,402.56 L 531.15,401.02 L 534.49,397.35 L 536.09,395.47 L 538.84,391.57 L 539.47,390.61 L 540.55,388.75 L 541.06,387.83 L 541.86,386.10 L 542.23,385.27 L 542.70,383.76 L 543.00,381.81 L 543.00,381.23 L 542.56,379.92 L 542.28,379.27 L 541.45,378.03 L 541.00,377.45 L 540.00,376.58 L 538.56,376.00 L 538.45,376.00 L 537.83,376.39 L 537.47,376.64 L 536.43,377.45 L 535.87,377.89 L 534.54,379.01 L 532.39,380.93 L 530.40,382.74 L 526.51,385.64 L 524.57,386.97 L 520.64,388.95 L 518.66,389.84 L 514.51,390.98 L 507.85,391.85 L 506.19,391.93 L 503.65,391.94 L 502.46,391.92 L 500.47,391.66 L 499.50,391.49 L 497.55,390.88 L 494.10,389.47 L 492.51,388.75 L 489.40,386.82 L 487.88,385.78 L 485.04,383.33 L 483.67,382.05 L 481.28,379.26 L 478.42,374.86 L 478.16,374.37 L 477.67,372.94 L 477.44,372.17 L 477.03,370.32 L 476.21,363.89 L 476.16,363.05 L 476.10,361.60 L 476.07,360.90 L 476.06,359.67 L 476.07,358.49 L 476.30,356.53 L 476.46,355.57 L 477.08,353.63 L 478.52,350.13 L 479.27,348.47 L 481.10,345.45 L 482.08,343.99 L 484.40,341.35 L 485.62,340.08 L 488.42,337.81 L 493.20,334.80 L 494.09,334.33 L 495.73,333.64 L 496.57,333.34 L 498.39,332.95 L 499.36,332.78 L 501.78,332.60 L 502.44,332.57 L 503.93,332.53 L 506.50,332.51 L 507.87,332.51 L 510.31,332.60 L 511.49,332.66 L 513.63,332.90 L 514.68,333.04 L 516.61,333.47 L 517.56,333.71 L 519.39,334.37 L 520.29,334.73 L 522.10,335.65 L 523.01,336.15 L 524.90,337.38 L 525.86,338.03 L 527.92,339.60 L 531.30,342.37 L 532.22,343.14 L 533.95,344.56 L 534.79,345.23 L 536.25,346.35 L 536.93,346.86 L 537.95,347.56 L 538.81,348.00 L 539.21,348.00 L 540.14,347.40 L 540.61,347.02 L 541.51,345.91 L 541.93,345.31 L 542.57,343.99 L 543.00,342.13 L 543.00,341.48 L 542.68,339.95 L 542.47,339.16 L 541.79,337.40 L 541.40,336.51 L 540.40,334.62 L 539.87,333.67 L 538.62,331.74 L 537.32,329.82 L 534.23,326.21 L 533.43,325.36 L 531.79,323.83 L 529.32,321.87 L 528.69,321.44 L 527.36,320.29 L 526.69,319.68 L 525.36,318.26 L 524.71,317.53 L 523.51,315.99 L 522.00,313.69 L 521.32,312.51 L 520.29,310.05 L 519.83,308.78 L 519.26,305.98 L 519.03,304.52 L 518.93,301.17 L 518.95,299.40 L 519.36,295.28 L 519.50,294.19 L 519.87,291.83 L 520.08,290.62 L 520.59,287.99 L 520.86,286.64 L 521.51,283.72 L 521.85,282.22 L 522.65,278.98 L 523.06,277.32 L 524.00,273.73 L 524.49,271.89 L 525.58,267.93 L 526.15,265.89 L 527.39,261.53 L 529.43,254.50 L 529.80,253.26 L 530.52,250.25 L 530.87,248.70 L 531.51,245.36 L 531.81,243.69 L 532.30,240.42 L 532.79,236.03 L 533.50,226.56 L 537.36,230.43 L 537.90,230.96 L 539.05,232.33 L 539.64,233.05 L 540.79,234.66 L 541.36,235.47 L 542.38,237.11 L 543.60,239.40 L 544.05,240.36 L 544.76,242.26 L 545.08,243.22 L 545.53,245.20 L 545.73,246.21 L 545.91,248.39 L 545.97,249.52 L 545.88,252.03 L 545.80,253.33 L 545.43,256.29 L 545.22,257.83 L 544.56,261.35 L 544.19,263.20 L 543.24,267.41 L 541.48,274.64 L 540.85,277.10 L 539.74,281.69 L 539.22,283.90 L 538.37,287.69 L 538.18,288.57 L 537.86,290.10 L 537.72,290.83 L 537.50,292.01 L 537.40,292.55 L 537.29,293.33 L 537.26,294.00 L 537.33,294.35 L 537.68,294.44 L 537.89,294.39 L 538.48,293.77 L 538.80,293.38 L 539.56,292.15 L 539.96,291.47 L 540.86,289.74 L 541.32,288.82 L 542.30,286.69 L 542.79,285.58 L 543.80,283.15 L 546.66,275.23 L 546.90,274.49 L 547.50,272.67 L 547.82,271.72 L 548.56,269.52 L 548.94,268.39 L 549.80,265.90 L 550.23,264.62 L 551.17,261.92 L 552.12,259.18 L 554.15,253.42 L 557.17,245.00 L 558.11,242.40 L 559.88,237.46 L 560.74,235.04 L 562.38,230.39 L 563.99,225.81 L 566.95,217.14 L 568.40,212.84 L 571.21,204.24 L 575.49,190.67 L 575.95,189.20 L 576.70,186.78 L 577.06,185.65 L 577.64,183.88 L 577.92,183.06 L 578.37,181.84 L 578.59,181.30 L 578.96,180.56 L 579.14,180.25 L 579.47,179.92 L 579.64,179.80 L 579.98,179.80 L 581.22,180.67 L 581.51,180.92 L 582.25,181.85 L 582.64,182.38 L 583.52,183.72 L 586.14,188.50 L 586.74,189.76 L 587.60,191.87 L 587.98,192.89 L 588.47,194.86 L 588.68,195.87 L 588.89,198.16 L 589.00,202.44 L 589.00,204.96 L 588.59,209.73 L 588.30,212.13 L 587.18,217.19 L 586.85,218.51 L 586.02,221.33 L 585.57,222.78 L 584.50,225.92 L 583.93,227.54 L 582.59,231.10 L 580.26,237.00 L 579.88,237.93 L 579.03,240.04 L 578.59,241.13 L 577.63,243.50 L 576.65,245.92 L 574.51,251.20 L 573.43,253.86 L 571.29,259.15 L 568.37,266.39 L 567.48,268.57 L 565.90,272.59 L 565.16,274.51 L 563.95,277.73 L 563.67,278.46 L 563.22,279.73 L 563.01,280.32 L 562.69,281.26 L 562.55,281.69 L 562.39,282.27 L 562.34,282.67 L 562.40,282.73 L 562.81,282.36 L 563.06,282.10 L 563.82,281.14 L 564.23,280.60 L 565.29,279.12 L 565.86,278.33 L 567.17,276.41 L 567.86,275.41 L 569.38,273.12 L 570.17,271.94 L 571.86,269.35 L 573.58,266.70 L 577.32,260.82 L 579.21,257.82 L 583.02,251.68 L 584.90,248.63 L 588.41,242.80 L 589.26,241.39 L 590.82,238.72 L 591.58,237.43 L 592.95,235.04 L 593.60,233.89 L 594.72,231.86 L 596.08,229.28 L 602.73,216.00 L 605.61,222.25 L 606.26,223.66 L 607.16,225.91 L 607.56,227.01 L 608.03,229.19 L 608.23,230.34 L 608.42,233.19 L 608.45,233.98 L 608.48,235.80 L 608.50,239.02 L 608.50,240.25 L 608.49,242.32 L 608.47,243.30 L 608.42,244.97 L 608.39,245.76 L 608.28,247.12 L 608.21,247.77 L 608.02,248.93 L 607.80,250.06 L 607.05,252.18 L 606.83,252.74 L 606.28,253.95 L 605.28,256.02 L 605.06,256.46 L 604.45,257.54 L 604.13,258.11 L 603.34,259.40 L 602.52,260.74 L 600.46,263.83 L 599.39,265.41 L 597.02,268.72 L 593.41,273.50 L 591.90,275.41 L 589.21,278.86 L 587.91,280.53 L 585.61,283.49 L 584.52,284.92 L 582.62,287.41 L 581.71,288.61 L 580.19,290.64 L 579.48,291.61 L 578.34,293.20 L 577.81,293.95 L 577.03,295.11 L 576.68,295.64 L 576.25,296.39 L 576.00,297.06 L 576.00,297.16 L 576.28,297.16 L 576.46,297.12 L 577.07,296.86 L 577.41,296.70 L 578.32,296.20 L 578.80,295.92 L 579.95,295.23 L 581.15,294.49 L 584.12,292.53 L 585.67,291.49 L 589.08,289.12 L 590.80,287.90 L 594.31,285.35 L 596.04,284.08 L 599.31,281.59 L 600.89,280.38 L 603.58,278.20 L 604.20,277.68 L 605.27,276.75 L 606.59,275.52 L 607.43,274.69 L 609.20,272.75 L 610.09,271.76 L 611.80,269.67 L 612.64,268.63 L 614.10,266.64 L 615.79,264.04 L 616.28,263.19 L 617.14,261.84 L 617.54,261.23 L 618.21,260.41 L 618.52,260.07 L 618.98,259.80 L 619.40,260.04 L 620.09,262.12 L 621.28,265.78 L 621.83,267.54 L 622.74,270.64 L 623.16,272.13 L 623.80,274.76 L 624.09,276.03 L 624.49,278.29 L 624.66,279.38 L 624.82,281.36 L 624.88,282.33 L 624.83,284.13 L 623.93,289.32 L 623.72,290.07 L 623.14,291.50 L 622.82,292.22 L 621.97,293.62 L 621.51,294.32 L 620.35,295.73 L 619.73,296.44 L 618.21,297.90 L 617.40,298.64 L 615.49,300.18 L 614.47,300.97 L 612.11,302.65 L 610.86,303.52 L 608.00,305.37 L 603.11,308.40 L 601.31,309.48 L 598.02,311.48 L 596.45,312.43 L 593.85,314.03 L 593.26,314.39 L 592.25,315.02 L 591.77,315.31 L 591.03,315.78 L 590.70,315.99 L 590.27,316.28 L 590.00,316.48 L 590.00,316.50 L 590.49,316.44 L 590.81,316.40 L 591.84,316.22 L 592.40,316.12 L 593.82,315.85 L 596.25,315.35 L 597.07,315.18 L 599.40,314.88 L 600.66,314.74 L 603.69,314.51 L 605.27,314.40 L 608.77,314.23 L 610.55,314.16 L 614.27,314.07 L 616.14,314.03 L 619.84,314.02 L 621.67,314.02 L 625.12,314.09 L 626.79,314.14 L 629.75,314.30 L 633.36,314.64 L 634.41,314.78 L 635.85,315.05 L 636.48,315.20 L 637.24,315.59 L 637.56,315.82 L 637.85,316.46 L 637.98,317.89 L 637.97,319.05 L 637.27,321.67 L 636.82,323.02 L 635.26,325.97 L 634.38,327.48 L 632.00,330.69 L 627.55,335.71 L 626.65,336.64 L 625.01,338.33 L 624.22,339.13 L 622.92,340.48 L 622.33,341.10 L 621.52,341.95 L 621.00,342.52 L 621.00,342.56 L 621.23,342.59 L 621.38,342.60 L 621.91,342.58 L 622.20,342.56 L 623.01,342.48 L 623.45,342.44 L 624.53,342.31 L 625.67,342.16 L 628.71,341.72 L 630.35,341.48 L 634.32,340.85 L 636.41,340.51 L 641.20,339.71 L 643.69,339.29 L 649.20,338.34 L 652.04,337.84 L 658.18,336.75 L 668.00,334.96 L 671.17,334.38 L 676.93,333.33 L 679.72,332.82 L 684.80,331.93 L 687.26,331.51 L 691.72,330.80 L 693.89,330.47 L 697.84,329.95 L 699.75,329.72 L 703.27,329.42 L 704.98,329.29 L 708.14,329.21 L 709.69,329.20 L 712.59,329.36 L 714.01,329.48 L 716.73,329.89 L 718.08,330.14 L 720.71,330.82 L 722.02,331.20 L 724.64,332.18 L 725.96,332.70 L 728.65,333.98 L 730.02,334.66 L 732.88,336.25 L 734.34,337.09 L 737.44,339.02 L 739.04,340.02 L 742.48,342.30 L 744.24,343.48 L 748.10,346.12 L 754.45,350.50 L 756.44,351.88 L 760.07,354.50 L 761.80,355.77 L 764.68,358.01 L 765.34,358.53 L 766.45,359.45 L 766.98,359.89 L 767.80,360.63 L 768.17,360.98 L 768.65,361.50 L 768.96,362.01 L 768.96,362.11 L 768.76,362.46 L 768.62,362.65 L 768.17,363.15 L 767.66,363.68 L 766.00,365.13 L 765.08,365.90 L 762.77,367.68 L 758.82,370.51 L 757.42,371.47 L 754.09,373.75 L 752.38,374.93 L 748.75,377.42 L 746.94,378.66 L 743.45,381.06 L 738.84,384.22 L 737.25,385.30 L 734.39,387.16 L 733.01,388.04 L 730.45,389.50 L 729.20,390.19 L 726.81,391.30 L 725.63,391.82 L 723.27,392.62 L 722.08,392.99 L 719.62,393.53 L 718.36,393.77 L 715.66,394.09 L 714.26,394.23 L 711.19,394.36 L 706.00,394.41 L 703.63,394.39 L 698.99,394.14 L 697.79,394.05 L 695.21,393.79 L 693.89,393.65 L 690.95,393.26 L 689.42,393.05 L 685.97,392.52 L 684.16,392.24 L 680.04,391.54 L 677.88,391.16 L 672.93,390.27 L 664.42,388.71 L 660.29,387.93 L 652.20,386.47 L 650.22,386.12 L 646.45,385.45 L 644.60,385.13 L 641.15,384.53 L 639.47,384.25 L 636.44,383.74 L 634.99,383.50 L 632.48,383.10 L 631.31,382.92 L 629.43,382.64 L 627.42,382.38 L 620.50,381.68 L 626.20,386.89 L 627.66,388.23 L 630.51,391.61 L 631.89,393.36 L 634.29,397.10 L 634.85,398.02 L 635.81,399.83 L 636.26,400.73 L 636.98,402.41 L 637.30,403.23 L 637.73,404.70 L 638.00,406.60 L 638.00,407.08 L 637.83,407.80 L 637.70,408.13 L 637.14,408.61 L 636.80,408.83 L 635.70,409.19 L 633.25,409.69 L 632.30,409.85 L 629.82,410.09 L 628.49,410.19 L 625.40,410.32 L 623.81,410.38 L 620.34,410.40 L 618.58,410.41 L 614.96,410.34 L 613.14,410.29 L 609.58,410.13 L 607.82,410.04 L 604.53,409.79 L 602.94,409.66 L 600.15,409.33 L 596.75,408.76 L 595.82,408.55 L 594.13,408.20 L 593.32,408.03 L 591.98,407.78 L 591.37,407.67 L 590.53,407.55 L 590.00,407.55 L 590.00,407.57 L 590.25,407.76 L 590.41,407.88 L 590.96,408.24 L 591.27,408.44 L 592.08,408.95 L 592.52,409.23 L 593.57,409.88 L 594.67,410.56 L 597.43,412.23 L 602.14,415.04 L 603.70,415.97 L 606.56,417.72 L 607.95,418.58 L 610.46,420.22 L 611.67,421.03 L 613.85,422.60 L 614.90,423.37 L 616.75,424.90 L 617.64,425.66 L 619.18,427.17 L 619.91,427.93 L 621.15,429.47 L 621.73,430.24 L 622.67,431.83 L 623.11,432.63 L 623.78,434.31 L 624.08,435.16 L 624.48,436.95 L 624.64,437.86 L 624.78,439.79 L 624.82,440.78 L 624.72,442.90 L 624.64,443.99 L 624.30,446.32 L 624.10,447.51 L 623.54,450.08 L 623.23,451.40 L 622.45,454.25 L 622.04,455.71 L 621.06,458.87 L 619.38,463.99 L 619.30,464.23 L 618.96,464.27 L 618.77,464.22 L 618.20,463.70 L 617.90,463.36 L 617.12,462.28 L 615.74,460.03 L 614.62,458.10 L 611.62,454.18 L 610.81,453.20 L 608.96,451.20 L 608.01,450.19 L 605.88,448.15 L 604.78,447.12 L 602.35,445.02 L 601.10,443.96 L 598.36,441.80 L 596.96,440.71 L 593.90,438.46 L 588.93,434.99 L 587.27,433.87 L 584.21,431.85 L 582.75,430.89 L 580.29,429.33 L 579.72,428.98 L 578.75,428.38 L 578.30,428.11 L 577.57,427.69 L 577.24,427.51 L 576.79,427.29 L 576.47,427.20 L 576.39,427.28 L 576.41,427.61 L 576.45,427.81 L 576.75,428.43 L 576.94,428.78 L 577.55,429.75 L 577.90,430.29 L 578.88,431.68 L 579.42,432.43 L 580.80,434.29 L 581.55,435.28 L 583.38,437.68 L 584.36,438.95 L 586.69,441.94 L 590.79,447.16 L 592.34,449.13 L 595.43,453.24 L 596.94,455.28 L 599.71,459.19 L 600.36,460.14 L 601.56,461.91 L 602.14,462.77 L 603.15,464.34 L 603.63,465.09 L 604.41,466.39 L 605.29,467.98 L 605.66,468.74 L 606.29,470.05 L 606.58,470.68 L 607.06,471.81 L 607.50,472.93 L 608.02,475.07 L 608.13,475.64 L 608.28,476.89 L 608.34,477.54 L 608.42,479.04 L 608.45,479.83 L 608.49,481.68 L 608.50,484.98 L 608.50,486.17 L 608.48,488.20 L 608.47,489.17 L 608.42,490.82 L 608.35,492.40 L 608.03,494.82 L 607.83,495.97 L 607.15,498.11 L 605.59,501.81 L 602.67,508.12 L 595.55,494.31 L 594.57,492.41 L 592.56,488.59 L 591.57,486.71 L 589.69,483.23 L 588.78,481.58 L 587.25,478.84 L 586.90,478.22 L 586.31,477.19 L 585.59,476.00 L 584.55,474.35 L 582.22,470.71 L 581.03,468.86 L 578.50,464.98 L 577.23,463.03 L 574.67,459.15 L 573.41,457.23 L 570.98,453.59 L 569.80,451.83 L 567.66,448.67 L 566.64,447.17 L 564.96,444.74 L 564.57,444.19 L 563.91,443.26 L 563.60,442.83 L 563.11,442.16 L 562.89,441.86 L 562.59,441.49 L 562.37,441.30 L 562.31,441.35 L 562.48,442.11 L 562.61,442.58 L 563.13,444.15 L 563.44,445.03 L 564.30,447.37 L 564.77,448.62 L 565.94,451.68 L 566.57,453.29 L 568.05,457.02 L 568.82,458.96 L 570.58,463.32 L 571.49,465.57 L 573.51,470.50 L 576.81,478.50 L 577.97,481.28 L 579.99,486.29 L 580.95,488.72 L 582.61,493.10 L 583.40,495.22 L 584.72,499.07 L 585.35,500.93 L 586.37,504.32 L 586.84,505.97 L 587.58,509.00 L 587.91,510.48 L 588.39,513.24 L 589.00,520.93 L 589.00,523.25 L 588.63,527.34 L 588.37,529.31 L 587.47,532.80 L 586.95,534.49 L 585.48,537.50 L 582.59,541.61 L 579.30,545.42 L 577.71,540.46 M 901.00,263.00 L 900.75,262.40 L 899.90,261.05 L 899.42,260.35 L 898.13,258.84 L 897.44,258.07 L 895.75,256.43 L 894.87,255.60 L 892.83,253.86 L 891.77,252.98 L 889.42,251.18 L 888.20,250.28 L 885.58,248.45 L 876.85,243.00 L 875.29,242.11 L 871.86,240.04 L 870.12,238.98 L 866.64,236.77 L 864.93,235.68 L 861.82,233.60 L 861.08,233.10 L 859.75,232.18 L 858.01,230.93 L 857.14,230.28 L 855.17,228.74 L 854.16,227.93 L 851.95,226.11 L 849.69,224.23 L 844.67,219.86 L 842.12,217.60 L 836.84,212.80 L 834.21,210.39 L 829.13,205.59 L 826.66,203.23 L 822.23,198.86 L 821.18,197.81 L 819.28,195.87 L 818.37,194.94 L 816.79,193.25 L 816.04,192.45 L 814.83,191.08 L 814.28,190.43 L 813.49,189.42 L 813.16,188.97 L 812.86,188.37 L 813.02,188.00 L 813.12,188.00 L 813.55,188.06 L 813.80,188.10 L 814.50,188.23 L 815.26,188.38 L 817.44,188.86 L 818.62,189.12 L 821.42,189.78 L 826.00,190.91 L 829.31,191.75 L 835.56,193.52 L 838.62,194.42 L 844.38,196.31 L 847.20,197.27 L 852.48,199.28 L 855.06,200.31 L 859.85,202.45 L 862.18,203.54 L 866.48,205.80 L 868.58,206.95 L 872.40,209.35 L 874.25,210.56 L 877.58,213.08 L 882.05,217.00 L 883.87,218.79 L 887.39,222.47 L 888.19,223.33 L 889.53,224.82 L 890.92,226.50 L 891.45,227.22 L 892.15,228.12 L 892.45,228.49 L 892.75,228.72 L 892.85,228.75 L 892.83,228.33 L 892.54,227.00 L 892.49,226.83 L 892.28,225.94 L 892.15,225.41 L 891.78,223.86 L 891.58,223.01 L 891.07,220.89 L 890.80,219.77 L 890.18,217.16 L 889.86,215.80 L 889.14,212.78 L 888.77,211.22 L 887.97,207.88 L 885.38,197.00 L 884.49,193.26 L 882.76,186.26 L 881.90,182.84 L 880.23,176.45 L 879.40,173.33 L 877.77,167.52 L 876.96,164.69 L 875.37,159.43 L 874.58,156.87 L 873.02,152.12 L 872.24,149.81 L 870.70,145.55 L 869.93,143.48 L 868.39,139.67 L 866.08,134.44 L 865.54,133.28 L 864.59,131.16 L 864.14,130.15 L 863.43,128.48 L 863.12,127.71 L 862.74,126.67 L 862.61,126.00 L 862.83,126.00 L 863.66,126.36 L 864.13,126.59 L 865.39,127.35 L 866.07,127.78 L 867.66,128.87 L 868.49,129.45 L 870.31,130.79 L 872.16,132.18 L 876.10,135.36 L 881.50,140.13 L 883.73,142.25 L 887.87,146.67 L 889.89,148.90 L 893.59,153.54 L 895.39,155.89 L 898.65,160.72 L 900.23,163.16 L 903.02,168.16 L 904.36,170.68 L 906.68,175.82 L 907.78,178.40 L 909.61,183.65 L 910.46,186.28 L 911.78,191.60 L 913.17,199.64 L 913.52,202.48 L 913.73,208.47 L 913.74,210.01 L 913.63,213.22 L 913.55,214.86 L 913.26,218.31 L 913.10,220.07 L 912.63,223.80 L 912.38,225.71 L 911.72,229.78 L 911.37,231.86 L 910.53,236.32 L 909.04,243.50 L 908.66,245.29 L 907.88,248.90 L 907.50,250.67 L 906.80,253.98 L 906.47,255.56 L 905.92,258.18 L 905.80,258.77 L 905.59,259.77 L 905.36,260.92 L 905.23,261.60 L 904.94,262.73 L 904.79,263.26 L 904.47,264.10 L 904.31,264.48 L 903.97,265.03 L 903.79,265.27 L 903.42,265.52 L 903.23,265.61 L 902.85,265.56 L 902.65,265.50 L 902.25,265.16 L 902.04,264.95 L 901.63,264.30 L 901.42,263.94 M 868.88,194.50 L 868.56,194.33 L 867.58,193.92 L 867.04,193.71 L 865.65,193.21 L 864.91,192.95 L 863.19,192.38 L 862.29,192.09 L 860.28,191.47 L 858.22,190.84 L 853.52,189.51 L 846.10,187.55 L 843.72,186.96 L 839.28,185.79 L 837.10,185.21 L 832.98,184.05 L 828.93,182.88 L 821.41,180.42 L 817.69,179.15 L 810.29,176.29 L 808.41,175.54 L 804.55,173.92 L 798.50,171.28 L 797.09,170.65 L 793.68,169.06 L 791.91,168.23 L 787.99,166.34 L 784.00,164.41 L 775.70,160.25 L 773.69,159.23 L 769.94,157.30 L 768.13,156.37 L 765.01,154.71 L 764.28,154.32 L 762.98,153.62 L 762.37,153.28 L 761.32,152.69 L 760.84,152.41 L 760.08,151.96 L 759.32,151.45 L 758.91,151.15 L 758.45,150.74 L 758.29,150.57 L 758.37,150.39 L 758.49,150.33 L 759.19,150.35 L 761.00,150.55 L 761.24,150.58 L 762.16,150.67 L 762.69,150.72 L 764.14,150.85 L 764.93,150.91 L 766.83,151.06 L 767.83,151.14 L 770.11,151.31 L 771.30,151.40 L 773.89,151.59 L 775.22,151.69 L 778.06,151.89 L 787.11,152.50 L 789.17,152.64 L 793.06,152.93 L 794.97,153.08 L 798.57,153.41 L 802.11,153.74 L 808.45,154.55 L 811.51,154.97 L 817.05,156.01 L 819.75,156.57 L 824.70,157.90 L 827.13,158.60 L 831.71,160.29 L 833.97,161.18 L 838.39,163.29 L 840.59,164.40 L 845.05,166.97 L 852.00,171.45 L 860.50,177.22 L 850.45,166.86 L 849.74,166.13 L 848.06,164.30 L 847.19,163.33 L 845.22,161.08 L 844.21,159.91 L 842.03,157.33 L 840.91,156.00 L 838.57,153.15 L 836.19,150.24 L 831.23,143.98 L 823.98,134.50 L 821.88,131.69 L 817.89,126.48 L 815.92,123.94 L 812.17,119.24 L 810.32,116.96 L 806.78,112.75 L 805.03,110.70 L 801.67,106.94 L 800.01,105.12 L 796.80,101.78 L 795.21,100.16 L 792.12,97.21 L 790.59,95.78 L 787.59,93.18 L 783.16,89.64 L 782.28,88.98 L 780.73,87.74 L 780.00,87.14 L 778.83,86.11 L 778.30,85.63 L 777.63,84.91 L 777.33,84.34 L 777.44,84.23 L 778.39,84.29 L 778.97,84.36 L 780.71,84.74 L 781.66,84.96 L 784.00,85.59 L 785.23,85.94 L 787.99,86.77 L 790.81,87.65 L 796.88,89.74 L 798.37,90.27 L 801.21,91.35 L 805.07,92.93 L 808.13,94.25 L 813.90,97.03 L 816.72,98.45 L 822.07,101.47 L 824.70,103.01 L 829.70,106.30 L 836.89,111.59 L 839.22,113.43 L 843.45,117.28 L 845.50,119.24 L 849.20,123.38 L 851.00,125.50 L 854.21,130.02 L 855.77,132.34 L 858.55,137.33 L 859.89,139.89 L 862.27,145.43 L 863.42,148.27 L 865.45,154.45 L 866.43,157.63 L 868.16,164.53 L 870.46,175.78 L 870.91,178.34 L 872.05,183.54 L 872.33,184.75 L 872.87,186.84 L 873.56,189.16 L 873.95,190.27 L 874.49,192.27 L 874.73,193.21 L 874.94,194.76 L 875.00,195.46 L 874.86,196.39 L 874.25,196.95 L 874.15,196.95 L 873.59,196.75 L 873.27,196.62 L 872.36,196.21 L 871.39,195.77 M 478.57,193.75 L 478.77,193.08 L 479.51,191.26 L 479.92,190.29 L 480.99,187.99 L 481.56,186.81 L 482.88,184.21 L 483.56,182.89 L 485.03,180.17 L 486.51,177.44 L 489.55,172.32 L 490.28,171.13 L 491.64,169.03 L 493.43,166.50 L 494.63,164.95 L 497.36,161.88 L 498.77,160.35 L 501.86,157.36 L 503.45,155.88 L 506.83,153.03 L 508.56,151.62 L 512.16,148.96 L 513.98,147.66 L 517.74,145.23 L 519.62,144.06 L 523.45,141.92 L 525.37,140.90 L 529.19,139.11 L 534.86,136.88 L 536.19,136.42 L 538.84,135.73 L 540.14,135.43 L 542.42,135.10 L 543.48,134.98 L 545.01,135.03 L 545.32,135.07 L 545.74,135.24 L 546.00,135.61 L 546.00,135.69 L 545.74,136.33 L 545.58,136.71 L 545.05,137.83 L 544.75,138.44 L 544.01,139.90 L 542.75,142.32 L 541.96,143.81 L 540.08,146.76 L 539.10,148.23 L 536.78,151.18 L 535.56,152.67 L 532.73,155.70 L 531.25,157.23 L 527.83,160.40 L 526.03,162.01 L 521.94,165.39 L 519.81,167.11 L 514.98,170.77 L 512.46,172.64 L 506.81,176.64 L 497.34,183.11 L 495.12,184.59 L 491.01,187.39 L 490.03,188.06 L 488.21,189.32 L 487.32,189.93 L 485.73,191.05 L 484.97,191.58 L 483.66,192.52 L 483.04,192.97 L 482.05,193.70 L 481.60,194.04 L 480.99,194.53 L 480.53,194.96 L 480.22,195.45 L 479.61,195.92 L 479.31,196.08 L 478.82,195.95 L 478.61,195.82 L 478.40,195.18 L 478.35,194.81 M 526.33,174.97 L 526.77,174.48 L 527.82,173.28 L 528.36,172.65 L 529.57,171.19 L 530.81,169.68 L 533.58,166.11 L 534.99,164.28 L 537.85,160.40 L 541.88,154.72 L 543.15,152.85 L 545.53,149.46 L 546.69,147.81 L 548.87,144.82 L 549.94,143.38 L 551.94,140.78 L 552.92,139.52 L 554.76,137.27 L 555.67,136.19 L 557.38,134.27 L 558.22,133.35 L 559.83,131.73 L 560.62,130.96 L 562.14,129.61 L 564.35,127.86 L 564.89,127.47 L 565.83,126.75 L 566.26,126.41 L 566.93,125.84 L 567.22,125.58 L 567.55,125.23 L 567.59,125.00 L 567.54,125.00 L 567.01,125.08 L 566.67,125.14 L 565.60,125.32 L 565.01,125.43 L 563.48,125.70 L 562.66,125.85 L 560.72,126.20 L 559.70,126.38 L 557.42,126.80 L 556.24,127.02 L 553.67,127.50 L 545.19,129.08 L 541.82,129.72 L 535.22,131.09 L 531.97,131.78 L 525.82,133.23 L 522.83,133.95 L 517.43,135.39 L 516.14,135.75 L 513.76,136.45 L 510.50,137.47 L 508.71,138.06 L 505.42,139.11 L 503.84,139.60 L 501.19,140.39 L 500.58,140.57 L 499.53,140.85 L 499.04,140.99 L 498.25,141.18 L 497.90,141.27 L 497.41,141.36 L 497.06,141.36 L 496.99,141.30 L 497.06,141.01 L 497.13,140.84 L 497.45,140.36 L 497.83,139.84 L 499.22,138.32 L 500.00,137.50 L 502.02,135.54 L 503.08,134.52 L 505.50,132.32 L 507.98,130.10 L 513.19,125.80 L 514.43,124.80 L 516.71,123.10 L 519.56,121.18 L 521.25,120.18 L 524.86,118.31 L 526.70,117.40 L 530.55,115.74 L 532.50,114.93 L 536.53,113.49 L 538.56,112.79 L 542.70,111.58 L 544.78,111.01 L 548.97,110.06 L 551.06,109.61 L 555.24,108.93 L 557.31,108.63 L 561.41,108.24 L 567.38,108.00 L 568.59,107.99 L 571.78,108.09 L 573.48,108.15 L 577.39,108.34 L 581.41,108.56 L 590.08,109.17 L 592.18,109.33 L 596.08,109.66 L 597.96,109.83 L 601.14,110.15 L 601.88,110.23 L 603.15,110.39 L 603.75,110.46 L 604.71,110.60 L 605.15,110.67 L 605.77,110.79 L 606.26,110.96 L 606.36,111.05 L 606.19,111.49 L 606.05,111.74 L 605.45,112.43 L 605.11,112.80 L 604.16,113.66 L 602.45,115.04 L 602.13,115.28 L 601.30,115.98 L 600.85,116.38 L 599.78,117.36 L 599.22,117.88 L 597.96,119.10 L 597.31,119.74 L 595.91,121.14 L 594.47,122.59 L 591.34,125.87 L 586.61,131.01 L 584.36,133.51 L 579.62,138.47 L 577.22,140.93 L 572.26,145.75 L 569.76,148.14 L 564.68,152.73 L 562.14,154.99 L 557.06,159.25 L 554.53,161.34 L 549.57,165.18 L 547.11,167.05 L 542.37,170.38 L 540.04,171.98 L 535.64,174.72 L 529.54,178.04 L 528.41,178.58 L 526.30,179.58 L 525.28,180.05 L 523.53,180.84 L 522.72,181.20 L 521.53,181.69 L 520.58,182.00 L 520.48,182.00 L 520.80,181.44 L 521.04,181.09 L 521.95,179.93 L 522.47,179.30 L 523.86,177.70 L 524.60,176.86 M 582.02,145.93 L 584.88,142.68 L 591.18,135.87 L 594.34,132.50 L 600.53,126.14 L 602.03,124.62 L 604.86,121.84 L 606.23,120.49 L 608.70,118.14 L 609.89,117.03 L 611.91,115.23 L 614.28,113.29 L 614.97,112.79 L 616.67,111.63 L 617.56,111.04 L 619.50,109.81 L 620.48,109.19 L 622.42,108.03 L 625.08,106.53 L 630.92,103.41 L 618.71,103.81 L 616.58,103.88 L 612.13,103.86 L 609.86,103.83 L 605.01,103.59 L 602.51,103.44 L 597.06,102.98 L 588.02,102.01 L 585.60,101.72 L 581.39,101.26 L 579.38,101.05 L 575.83,100.74 L 574.12,100.60 L 571.04,100.45 L 569.54,100.39 L 566.72,100.39 L 563.93,100.44 L 558.30,101.01 L 556.82,101.20 L 553.61,101.69 L 548.21,102.63 L 547.07,102.84 L 544.89,103.18 L 543.84,103.34 L 542.01,103.58 L 541.15,103.68 L 539.85,103.78 L 538.75,103.75 L 538.54,103.68 L 538.73,103.22 L 538.91,102.95 L 539.77,102.15 L 540.27,101.72 L 541.67,100.66 L 542.42,100.11 L 544.22,98.90 L 546.09,97.66 L 550.46,95.07 L 556.86,91.75 L 560.75,89.98 L 568.11,87.11 L 571.75,85.79 L 578.87,83.82 L 582.43,82.94 L 589.66,81.88 L 591.48,81.67 L 595.22,81.41 L 597.10,81.32 L 600.98,81.29 L 602.94,81.31 L 607.00,81.51 L 609.06,81.64 L 613.36,82.07 L 615.54,82.31 L 620.11,82.97 L 622.43,83.33 L 627.31,84.21 L 629.80,84.68 L 635.04,85.80 L 637.71,86.38 L 643.35,87.72 L 646.23,88.42 L 652.32,89.99 L 662.00,92.61 L 664.27,93.24 L 668.47,94.44 L 670.49,95.03 L 673.90,96.07 L 674.68,96.31 L 676.04,96.74 L 676.68,96.95 L 677.70,97.30 L 678.17,97.46 L 678.83,97.71 L 679.33,97.97 L 679.44,98.08 L 679.11,98.44 L 678.86,98.64 L 677.91,99.14 L 677.36,99.40 L 675.91,99.97 L 673.33,100.84 L 671.40,101.42 L 667.62,102.94 L 665.69,103.78 L 661.52,106.03 L 660.43,106.65 L 658.08,108.08 L 656.88,108.83 L 654.26,110.55 L 652.91,111.44 L 649.95,113.48 L 645.06,116.92 L 642.30,118.90 L 636.97,122.59 L 634.33,124.40 L 629.23,127.75 L 626.70,129.39 L 621.81,132.41 L 619.40,133.89 L 614.71,136.59 L 612.39,137.90 L 607.89,140.30 L 605.66,141.46 L 601.33,143.55 L 599.19,144.55 L 595.02,146.35 L 588.92,148.72 L 587.11,149.37 L 584.17,150.43 L 582.81,150.91 L 580.73,151.62 L 579.78,151.93 L 578.48,152.27 L 577.93,152.39 L 577.35,152.33 L 577.15,152.25 L 577.23,151.76 L 577.35,151.47 L 578.04,150.53 L 578.45,150.01 L 579.66,148.60 L 580.33,147.83 M 809.00,143.81 L 808.01,143.45 L 805.92,142.85 L 804.85,142.57 L 802.54,142.12 L 801.35,141.91 L 798.77,141.61 L 797.43,141.48 L 794.51,141.33 L 793.00,141.27 L 789.68,141.27 L 787.96,141.29 L 784.18,141.43 L 782.23,141.52 L 777.93,141.80 L 770.83,142.39 L 768.40,142.61 L 763.35,143.01 L 760.84,143.21 L 756.05,143.52 L 753.74,143.67 L 749.76,143.87 L 748.84,143.91 L 747.26,143.96 L 745.33,144.00 L 743.44,143.99 L 739.03,143.73 L 736.74,143.56 L 731.73,143.01 L 729.18,142.70 L 723.87,141.90 L 721.20,141.48 L 715.87,140.50 L 713.23,140.00 L 708.17,138.89 L 705.71,138.32 L 701.21,137.14 L 699.05,136.55 L 695.40,135.35 L 694.56,135.05 L 693.07,134.46 L 691.20,133.60 L 690.56,133.26 L 689.81,132.80 L 689.54,132.58 L 689.65,132.22 L 689.74,132.13 L 690.11,131.94 L 690.33,131.84 L 690.98,131.61 L 691.34,131.49 L 692.29,131.20 L 694.06,130.69 L 695.26,130.35 L 697.98,129.66 L 699.39,129.31 L 702.47,128.63 L 705.64,127.95 L 712.66,126.68 L 716.22,126.07 L 723.48,125.04 L 733.80,123.90 L 737.90,123.55 L 746.14,123.39 L 750.28,123.41 L 758.68,124.00 L 762.91,124.38 L 771.57,125.72 L 785.00,128.59 L 785.34,128.67 L 785.46,128.52 L 785.43,128.40 L 784.86,127.88 L 784.49,127.58 L 783.33,126.78 L 781.00,125.31 L 777.74,123.35 L 771.87,119.58 L 769.00,117.67 L 763.44,113.66 L 760.64,111.58 L 754.78,106.87 L 753.27,105.63 L 750.09,102.95 L 745.00,98.55 L 743.09,96.88 L 739.46,93.78 L 737.67,92.27 L 734.24,89.48 L 732.55,88.11 L 729.28,85.57 L 727.66,84.33 L 724.49,82.02 L 721.34,79.76 L 715.12,75.74 L 705.52,70.19 L 697.50,65.87 L 707.60,66.43 L 710.71,66.60 L 717.06,67.43 L 720.25,67.92 L 726.66,69.35 L 729.86,70.13 L 736.19,72.09 L 739.33,73.13 L 745.44,75.56 L 748.45,76.83 L 754.19,79.68 L 757.00,81.15 L 762.23,84.35 L 764.77,85.99 L 769.36,89.49 L 775.35,95.01 L 775.78,95.45 L 776.81,96.60 L 777.36,97.21 L 778.61,98.64 L 779.90,100.12 L 782.91,103.71 L 784.46,105.57 L 787.72,109.56 L 792.46,115.51 L 795.47,119.35 L 802.05,127.48 L 803.61,129.39 L 806.40,132.75 L 807.05,133.53 L 808.22,134.90 L 809.71,136.61 L 810.42,137.42 L 811.67,138.88 L 812.27,139.58 L 813.27,140.83 L 813.74,141.43 L 814.51,142.46 L 814.86,142.95 L 815.38,143.78 L 815.61,144.16 L 815.89,144.78 L 816.00,145.06 L 816.04,145.47 L 816.02,145.65 L 815.82,145.85 L 815.25,145.91 L 815.15,145.90 L 814.52,145.72 L 814.16,145.61 L 813.10,145.26 L 811.97,144.88 M 635.00,132.34 L 635.00,132.27 L 635.25,132.01 L 635.42,131.85 L 635.97,131.41 L 636.29,131.17 L 637.11,130.59 L 637.56,130.28 L 638.62,129.57 L 639.73,128.83 L 642.52,127.05 L 643.99,126.13 L 647.27,124.12 L 650.63,122.08 L 657.67,118.00 L 659.36,117.04 L 662.49,115.32 L 666.50,113.21 L 669.77,111.58 L 676.42,108.86 L 679.77,107.58 L 686.67,105.53 L 690.16,104.58 L 697.46,103.16 L 709.00,101.71 L 712.50,101.41 L 709.50,100.64 L 704.63,99.39 L 695.47,96.71 L 693.14,95.99 L 688.29,94.39 L 685.81,93.56 L 680.48,91.65 L 677.72,90.65 L 671.63,88.34 L 670.05,87.74 L 666.70,86.43 L 665.00,85.76 L 661.37,84.33 L 659.52,83.59 L 655.58,82.01 L 653.57,81.19 L 649.29,79.45 L 647.10,78.56 L 642.45,76.65 L 635.00,73.59 L 633.14,72.82 L 629.50,71.42 L 627.72,70.75 L 624.51,69.65 L 622.99,69.14 L 620.58,68.45 L 620.04,68.30 L 619.18,68.12 L 618.25,68.00 L 617.50,68.00 L 616.41,67.93 L 615.93,67.88 L 615.36,67.72 L 615.15,67.63 L 615.11,67.38 L 615.15,67.25 L 615.63,66.92 L 615.93,66.75 L 616.91,66.34 L 617.47,66.13 L 618.95,65.65 L 619.76,65.41 L 621.74,64.86 L 625.25,63.97 L 628.85,63.10 L 636.26,62.04 L 639.99,61.63 L 647.50,61.46 L 651.25,61.49 L 658.65,62.23 L 669.42,64.34 L 671.43,64.87 L 675.15,65.98 L 676.98,66.55 L 680.47,67.81 L 682.20,68.47 L 685.62,69.95 L 687.34,70.74 L 690.85,72.54 L 692.64,73.50 L 696.41,75.71 L 698.35,76.87 L 702.54,79.58 L 704.71,81.00 L 709.49,84.29 L 710.73,85.15 L 713.35,87.00 L 717.50,89.97 L 719.15,91.16 L 722.78,93.74 L 724.61,95.04 L 728.28,97.62 L 730.07,98.88 L 733.34,101.15 L 734.12,101.69 L 735.51,102.65 L 737.33,103.89 L 738.41,104.61 L 740.34,105.97 L 741.25,106.63 L 742.73,107.75 L 743.40,108.27 L 744.27,109.03 L 744.71,109.62 L 744.65,109.69 L 743.79,109.82 L 743.26,109.89 L 741.63,110.03 L 740.74,110.10 L 738.55,110.22 L 734.88,110.36 L 733.74,110.40 L 731.82,110.48 L 730.90,110.52 L 729.26,110.66 L 727.67,110.83 L 724.59,111.54 L 723.77,111.77 L 721.94,112.39 L 720.98,112.73 L 718.72,113.60 L 717.52,114.08 L 714.66,115.27 L 709.50,117.45 L 707.05,118.49 L 702.80,120.27 L 700.77,121.12 L 697.23,122.57 L 695.53,123.26 L 692.53,124.43 L 691.09,124.98 L 688.47,125.93 L 685.91,126.83 L 681.22,128.22 L 680.03,128.55 L 677.54,129.19 L 673.50,130.15 L 672.90,130.29 L 671.47,130.56 L 670.73,130.69 L 669.07,130.95 L 667.35,131.21 L 663.40,131.67 L 659.34,132.11 L 650.62,132.71 L 648.52,132.83 L 644.63,132.97 L 642.77,133.02 L 639.65,133.02 L 638.94,133.00 L 637.72,132.95 L 637.15,132.92 L 636.26,132.82 L 635.85,132.76 L 635.33,132.61 L 635.11,132.53 Z" fill="#00ffa6" data-index="1"></path></g></g></svg>